<svg width="240" height="55" viewBox="0 0 240 55" fill="none" xmlns="http://www.w3.org/2000/svg">
<path d="M201.969 13.1992H186.031C182.148 13.1992 179 16.3472 179 20.2305V36.168C179 40.0512 182.148 43.1992 186.031 43.1992H201.969C205.852 43.1992 209 40.0512 209 36.168V20.2305C209 16.3472 205.852 13.1992 201.969 13.1992Z" fill="url(#paint0_radial_569_369)"/>
<path d="M201.969 13.1992H186.031C182.148 13.1992 179 16.3472 179 20.2305V36.168C179 40.0512 182.148 43.1992 186.031 43.1992H201.969C205.852 43.1992 209 40.0512 209 36.168V20.2305C209 16.3472 205.852 13.1992 201.969 13.1992Z" fill="url(#paint1_radial_569_369)"/>
<path d="M194.001 16.4805C190.818 16.4805 190.419 16.4944 189.169 16.5513C187.921 16.6084 187.07 16.8059 186.325 17.0957C185.554 17.395 184.9 17.7954 184.249 18.447C183.597 19.0984 183.196 19.7522 182.896 20.5227C182.606 21.268 182.408 22.12 182.352 23.367C182.296 24.617 182.281 25.0166 182.281 28.1993C182.281 31.382 182.295 31.7802 182.352 33.0302C182.409 34.2777 182.607 35.1293 182.896 35.8744C183.196 36.6453 183.596 37.2991 184.248 37.9504C184.899 38.6023 185.553 39.0037 186.323 39.303C187.069 39.5928 187.921 39.7902 189.168 39.8474C190.418 39.9043 190.817 39.9182 194 39.9182C197.183 39.9182 197.581 39.9043 198.831 39.8474C200.078 39.7902 200.931 39.5928 201.676 39.303C202.447 39.0037 203.1 38.6023 203.751 37.9504C204.403 37.2991 204.803 36.6453 205.104 35.8748C205.392 35.1293 205.589 34.2775 205.648 33.0304C205.704 31.7805 205.719 31.382 205.719 28.1993C205.719 25.0166 205.704 24.6173 205.648 23.3672C205.589 22.1196 205.392 21.2682 205.104 20.5231C204.803 19.7522 204.403 19.0984 203.751 18.447C203.099 17.7952 202.447 17.3948 201.676 17.0958C200.929 16.8059 200.077 16.6083 198.829 16.5513C197.579 16.4944 197.181 16.4805 193.997 16.4805H194.001ZM192.95 18.5923C193.262 18.5918 193.61 18.5923 194.001 18.5923C197.13 18.5923 197.501 18.6036 198.736 18.6597C199.879 18.712 200.499 18.9029 200.912 19.0633C201.459 19.2756 201.849 19.5296 202.259 19.9398C202.669 20.35 202.923 20.7406 203.136 21.2875C203.296 21.7 203.488 22.3202 203.54 23.4627C203.596 24.6981 203.608 25.0691 203.608 28.1966C203.608 31.3241 203.596 31.6953 203.54 32.9305C203.487 34.0731 203.296 34.6933 203.136 35.1059C202.924 35.6528 202.669 36.0422 202.259 36.4521C201.849 36.8623 201.459 37.1161 200.912 37.3286C200.5 37.4897 199.879 37.6802 198.736 37.7324C197.501 37.7886 197.13 37.8007 194.001 37.8007C190.872 37.8007 190.501 37.7886 189.266 37.7324C188.123 37.6797 187.503 37.4888 187.09 37.3284C186.543 37.1159 186.152 36.8621 185.742 36.4519C185.332 36.0418 185.078 35.6521 184.865 35.105C184.705 34.6923 184.513 34.0722 184.461 32.9296C184.405 31.6942 184.394 31.3232 184.394 28.1937C184.394 25.0643 184.405 24.6952 184.461 23.4598C184.514 22.3172 184.705 21.6971 184.865 21.284C185.077 20.7371 185.332 20.3465 185.742 19.9363C186.152 19.5262 186.543 19.2722 187.09 19.0594C187.503 18.8983 188.123 18.7079 189.266 18.6554C190.347 18.6065 190.766 18.5918 192.95 18.5894V18.5923ZM200.257 20.5381C199.48 20.5381 198.85 21.1674 198.85 21.9439C198.85 22.7202 199.48 23.3501 200.257 23.3501C201.033 23.3501 201.663 22.7202 201.663 21.9439C201.663 21.1675 201.033 20.5376 200.257 20.5376V20.5381ZM194.001 22.1812C190.678 22.1812 187.983 24.8758 187.983 28.1993C187.983 31.5229 190.678 34.2162 194.001 34.2162C197.325 34.2162 200.018 31.5229 200.018 28.1993C200.018 24.8759 197.324 22.1812 194.001 22.1812H194.001ZM194.001 24.293C196.158 24.293 197.907 26.0418 197.907 28.1993C197.907 30.3566 196.158 32.1057 194.001 32.1057C191.844 32.1057 190.095 30.3566 190.095 28.1993C190.095 26.0418 191.844 24.293 194.001 24.293Z" fill="white"/>
<g clip-path="url(#clip0_569_369)">
<path d="M86.4987 42.4807C94.517 41.274 100.665 34.3556 100.665 26.0007C100.665 16.7957 93.2037 9.33398 83.9987 9.33398C74.7937 9.33398 67.332 16.7957 67.332 26.0007C67.332 34.3556 73.4804 41.2757 81.4987 42.4807V31.0007H78.9987C78.3357 31.0007 77.6998 30.7373 77.2309 30.2684C76.7621 29.7996 76.4987 29.1637 76.4987 28.5007C76.4987 27.8376 76.7621 27.2017 77.2309 26.7329C77.6998 26.264 78.3357 26.0007 78.9987 26.0007H81.4987V22.6673C81.4987 21.1202 82.1133 19.6365 83.2072 18.5425C84.3012 17.4486 85.7849 16.834 87.332 16.834H88.1654C88.8284 16.834 89.4643 17.0974 89.9331 17.5662C90.402 18.0351 90.6654 18.6709 90.6654 19.334C90.6654 19.997 90.402 20.6329 89.9331 21.1018C89.4643 21.5706 88.8284 21.834 88.1654 21.834H87.332C87.111 21.834 86.8991 21.9218 86.7428 22.0781C86.5865 22.2343 86.4987 22.4463 86.4987 22.6673V26.0007H88.9987C89.6617 26.0007 90.2976 26.264 90.7665 26.7329C91.2353 27.2017 91.4987 27.8376 91.4987 28.5007C91.4987 29.1637 91.2353 29.7996 90.7665 30.2684C90.2976 30.7373 89.6617 31.0007 88.9987 31.0007H86.4987V42.4807Z" fill="#1D9BF0"/>
</g>
<path d="M158 16.5513C156.877 17.1637 155.685 17.5657 154.465 17.7439C155.736 16.8066 156.712 15.3223 157.171 13.5539C155.963 14.4361 154.641 15.0576 153.263 15.3917C152.14 13.9198 150.541 13 148.77 13C145.371 13 142.615 16.391 142.615 20.5733C142.615 21.167 142.67 21.7449 142.775 22.2994C137.659 21.9834 133.124 18.9684 130.088 14.3863C129.559 15.5049 129.255 16.806 129.255 18.1938C129.255 20.8213 130.342 23.1393 131.993 24.4976C131.016 24.4599 130.06 24.1351 129.205 23.5502C129.205 23.5819 129.205 23.6136 129.205 23.6455C129.205 27.3149 131.327 30.376 134.142 31.0717C133.236 31.375 132.285 31.4194 131.363 31.2015C132.146 34.2104 134.419 36.3999 137.112 36.4612C135.006 38.4923 132.352 39.7032 129.468 39.7032C128.971 39.7032 128.482 39.6673 128 39.5973C130.724 41.7462 133.959 43 137.435 43C148.756 43 154.947 31.4596 154.947 21.4516C154.947 21.1232 154.941 20.7965 154.929 20.4718C156.134 19.4 157.174 18.0724 158 16.5513Z" fill="#55ACEE"/>
<defs>
<radialGradient id="paint0_radial_569_369" cx="0" cy="0" r="1" gradientUnits="userSpaceOnUse" gradientTransform="translate(186.969 45.5098) rotate(-90) scale(29.7322 27.6533)">
<stop stop-color="#FFDD55"/>
<stop offset="0.1" stop-color="#FFDD55"/>
<stop offset="0.5" stop-color="#FF543E"/>
<stop offset="1" stop-color="#C837AB"/>
</radialGradient>
<radialGradient id="paint1_radial_569_369" cx="0" cy="0" r="1" gradientUnits="userSpaceOnUse" gradientTransform="translate(173.975 15.3603) rotate(78.681) scale(13.2905 54.7837)">
<stop stop-color="#3771C8"/>
<stop offset="0.128" stop-color="#3771C8"/>
<stop offset="1" stop-color="#6600FF" stop-opacity="0"/>
</radialGradient>
<clipPath id="clip0_569_369">
<rect width="40" height="40" fill="white" transform="translate(64 6)"/>
</clipPath>
</defs>
</svg>
